name rise38.3101peak57.3503fall81.6963.mot
datacolumns 19
datarows 36
range 4.49998800000000 4.55831800000000
endheader
time	ground_force1_vx	ground_force1_vy	ground_force1_vz	ground_force1_px	ground_force1_py	ground_force1_pz	ground_force2_vx	ground_force2_vy	ground_force2_vz	ground_force2_px	ground_force2_py	ground_force2_pz	ground_torque1_x	ground_torque1_y	ground_torque1_z	ground_torque2_x	ground_torque2_y	ground_torque2_z	
4.49998800000000	12.49960700000000	674.23869900000000	41.05591000000000	0.26436200000000	0.00000000000000	0.10023800000000	0.00000000000000	0.00000000000000	0.00000000000000	0.00000000000000	0.00000000000000	0.00000000000000	0.00000000000000	20.05752100000000	0.00000000000000	0.00000000000000	0.00000000000000	0.00000000000000	
4.50165600000000	12.01096500000000	674.94811800000002	41.06662100000000	0.26384800000000	0.00000000000000	0.10019700000000	0.00000000000000	0.00000000000000	0.00000000000000	0.00000000000000	0.00000000000000	0.00000000000000	0.00000000000000	20.14021700000000	0.00000000000000	0.00000000000000	0.00000000000000	0.00000000000000	
4.50331700000000	11.51018200000000	675.71131900000000	41.07903400000000	0.26334700000000	0.00000000000000	0.10015400000000	0.00000000000000	0.00000000000000	0.00000000000000	0.00000000000000	0.00000000000000	0.00000000000000	0.00000000000000	20.22788600000000	0.00000000000000	0.00000000000000	0.00000000000000	0.00000000000000	
4.50498900000000	10.99699700000000	676.52859200000000	41.09295300000000	0.26285500000000	0.00000000000000	0.10011100000000	0.00000000000000	0.00000000000000	0.00000000000000	0.00000000000000	0.00000000000000	0.00000000000000	0.00000000000000	20.32037900000000	0.00000000000000	0.00000000000000	0.00000000000000	0.00000000000000	
4.50665000000000	10.47118400000000	677.40023900000006	41.10819800000000	0.26237100000000	0.00000000000000	0.10006600000000	0.00000000000000	0.00000000000000	0.00000000000000	0.00000000000000	0.00000000000000	0.00000000000000	0.00000000000000	20.41754200000000	0.00000000000000	0.00000000000000	0.00000000000000	0.00000000000000	
4.50832500000000	9.93255800000000	678.32657200000006	41.12460600000000	0.26189100000000	0.00000000000000	0.10002000000000	0.00000000000000	0.00000000000000	0.00000000000000	0.00000000000000	0.00000000000000	0.00000000000000	0.00000000000000	20.51922200000000	0.00000000000000	0.00000000000000	0.00000000000000	0.00000000000000	
4.50998900000000	9.38097500000000	679.30790500000001	41.14203000000000	0.26141400000000	0.00000000000000	0.09997400000000	0.00000000000000	0.00000000000000	0.00000000000000	0.00000000000000	0.00000000000000	0.00000000000000	0.00000000000000	20.62526700000000	0.00000000000000	0.00000000000000	0.00000000000000	0.00000000000000	
4.51165600000000	8.81633300000000	680.34455200000002	41.16034400000000	0.26093700000000	0.00000000000000	0.09992700000000	0.00000000000000	0.00000000000000	0.00000000000000	0.00000000000000	0.00000000000000	0.00000000000000	0.00000000000000	20.73552100000000	0.00000000000000	0.00000000000000	0.00000000000000	0.00000000000000	
4.51332500000000	8.23856900000000	681.43682100000001	41.17943600000000	0.26045800000000	0.00000000000000	0.09988000000000	0.00000000000000	0.00000000000000	0.00000000000000	0.00000000000000	0.00000000000000	0.00000000000000	0.00000000000000	20.84983000000000	0.00000000000000	0.00000000000000	0.00000000000000	0.00000000000000	
4.51498600000000	7.64766600000000	682.58500700000002	41.19921500000000	0.25997300000000	0.00000000000000	0.09983300000000	0.00000000000000	0.00000000000000	0.00000000000000	0.00000000000000	0.00000000000000	0.00000000000000	0.00000000000000	20.96804000000000	0.00000000000000	0.00000000000000	0.00000000000000	0.00000000000000	
4.51665600000000	7.04364800000000	683.78938600000004	41.21960700000000	0.25948200000000	0.00000000000000	0.09978500000000	0.00000000000000	0.00000000000000	0.00000000000000	0.00000000000000	0.00000000000000	0.00000000000000	0.00000000000000	21.08999700000000	0.00000000000000	0.00000000000000	0.00000000000000	0.00000000000000	
4.51831900000000	6.42658400000000	685.05021199999999	41.24055900000000	0.25898200000000	0.00000000000000	0.09973800000000	0.00000000000000	0.00000000000000	0.00000000000000	0.00000000000000	0.00000000000000	0.00000000000000	0.00000000000000	21.21554700000000	0.00000000000000	0.00000000000000	0.00000000000000	0.00000000000000	
4.51998900000000	5.79658500000000	686.36770700000000	41.26203400000000	0.25847000000000	0.00000000000000	0.09969000000000	0.00000000000000	0.00000000000000	0.00000000000000	0.00000000000000	0.00000000000000	0.00000000000000	0.00000000000000	21.34453900000000	0.00000000000000	0.00000000000000	0.00000000000000	0.00000000000000	
4.52165600000000	5.15380500000000	687.74205600000005	41.28401700000000	0.25794400000000	0.00000000000000	0.09964300000000	0.00000000000000	0.00000000000000	0.00000000000000	0.00000000000000	0.00000000000000	0.00000000000000	0.00000000000000	21.47682100000000	0.00000000000000	0.00000000000000	0.00000000000000	0.00000000000000	
4.52331600000000	4.49844300000000	689.17340100000001	41.30651000000000	0.25740400000000	0.00000000000000	0.09959600000000	0.00000000000000	0.00000000000000	0.00000000000000	0.00000000000000	0.00000000000000	0.00000000000000	0.00000000000000	21.61224500000000	0.00000000000000	0.00000000000000	0.00000000000000	0.00000000000000	
4.52498700000000	3.83073900000000	690.66183400000000	41.32953600000000	0.25684600000000	0.00000000000000	0.09955000000000	0.00000000000000	0.00000000000000	0.00000000000000	0.00000000000000	0.00000000000000	0.00000000000000	0.00000000000000	21.75066300000000	0.00000000000000	0.00000000000000	0.00000000000000	0.00000000000000	
4.52665100000000	3.15097800000000	692.20739100000003	41.35313700000000	0.25626900000000	0.00000000000000	0.09950400000000	0.00000000000000	0.00000000000000	0.00000000000000	0.00000000000000	0.00000000000000	0.00000000000000	0.00000000000000	21.89192900000000	0.00000000000000	0.00000000000000	0.00000000000000	0.00000000000000	
4.52832100000000	2.45948500000000	693.81004299999995	41.37737200000000	0.25567100000000	0.00000000000000	0.09946000000000	0.00000000000000	0.00000000000000	0.00000000000000	0.00000000000000	0.00000000000000	0.00000000000000	0.00000000000000	22.03590000000000	0.00000000000000	0.00000000000000	0.00000000000000	0.00000000000000	
4.52998400000000	1.75662600000000	695.46969500000000	41.40232100000000	0.25505200000000	0.00000000000000	0.09941600000000	0.00000000000000	0.00000000000000	0.00000000000000	0.00000000000000	0.00000000000000	0.00000000000000	0.00000000000000	22.18243400000000	0.00000000000000	0.00000000000000	0.00000000000000	0.00000000000000	
4.53165800000000	1.04280700000000	697.18617400000005	41.42808200000000	0.25441000000000	0.00000000000000	0.09937300000000	0.00000000000000	0.00000000000000	0.00000000000000	0.00000000000000	0.00000000000000	0.00000000000000	0.00000000000000	22.33139300000000	0.00000000000000	0.00000000000000	0.00000000000000	0.00000000000000	
4.53332400000000	0.31847600000000	698.95922399999995	41.45477200000000	0.25374300000000	0.00000000000000	0.09933200000000	0.00000000000000	0.00000000000000	0.00000000000000	0.00000000000000	0.00000000000000	0.00000000000000	0.00000000000000	22.48264100000000	0.00000000000000	0.00000000000000	0.00000000000000	0.00000000000000	
4.53499200000000	-0.41588400000000	700.78850299999999	41.48252500000000	0.25305000000000	0.00000000000000	0.09929200000000	0.00000000000000	0.00000000000000	0.00000000000000	0.00000000000000	0.00000000000000	0.00000000000000	0.00000000000000	22.63604300000000	0.00000000000000	0.00000000000000	0.00000000000000	0.00000000000000	
4.53665400000000	-1.15975200000000	702.67357500000003	41.51149400000000	0.25233200000000	0.00000000000000	0.09925300000000	0.00000000000000	0.00000000000000	0.00000000000000	0.00000000000000	0.00000000000000	0.00000000000000	0.00000000000000	22.79146900000000	0.00000000000000	0.00000000000000	0.00000000000000	0.00000000000000	
4.53832200000000	-1.91257100000000	704.61390600000004	41.54184900000000	0.25158600000000	0.00000000000000	0.09921600000000	0.00000000000000	0.00000000000000	0.00000000000000	0.00000000000000	0.00000000000000	0.00000000000000	0.00000000000000	22.94879000000000	0.00000000000000	0.00000000000000	0.00000000000000	0.00000000000000	
4.53998600000000	-2.67375100000000	706.60885599999995	41.57377500000000	0.25081400000000	0.00000000000000	0.09918100000000	0.00000000000000	0.00000000000000	0.00000000000000	0.00000000000000	0.00000000000000	0.00000000000000	0.00000000000000	23.10787900000000	0.00000000000000	0.00000000000000	0.00000000000000	0.00000000000000	
4.54165300000000	-3.44266900000000	708.65767700000004	41.60747400000000	0.25001300000000	0.00000000000000	0.09914700000000	0.00000000000000	0.00000000000000	0.00000000000000	0.00000000000000	0.00000000000000	0.00000000000000	0.00000000000000	23.26861200000000	0.00000000000000	0.00000000000000	0.00000000000000	0.00000000000000	
4.54332000000000	-4.21867200000000	710.75950799999998	41.64316500000000	0.24918500000000	0.00000000000000	0.09911500000000	0.00000000000000	0.00000000000000	0.00000000000000	0.00000000000000	0.00000000000000	0.00000000000000	0.00000000000000	23.43086800000000	0.00000000000000	0.00000000000000	0.00000000000000	0.00000000000000	
4.54498900000000	-5.00107900000000	712.91337199999998	41.68108000000000	0.24832900000000	0.00000000000000	0.09908500000000	0.00000000000000	0.00000000000000	0.00000000000000	0.00000000000000	0.00000000000000	0.00000000000000	0.00000000000000	23.59452800000000	0.00000000000000	0.00000000000000	0.00000000000000	0.00000000000000	
4.54665800000000	-5.78918200000000	715.11816899999997	41.72146400000000	0.24744600000000	0.00000000000000	0.09905700000000	0.00000000000000	0.00000000000000	0.00000000000000	0.00000000000000	0.00000000000000	0.00000000000000	0.00000000000000	23.75947200000000	0.00000000000000	0.00000000000000	0.00000000000000	0.00000000000000	
4.54832200000000	-6.58224700000000	717.37267799999995	41.76457600000000	0.24653500000000	0.00000000000000	0.09903100000000	0.00000000000000	0.00000000000000	0.00000000000000	0.00000000000000	0.00000000000000	0.00000000000000	0.00000000000000	23.92558600000000	0.00000000000000	0.00000000000000	0.00000000000000	0.00000000000000	
4.54998500000000	-7.37952100000000	719.67554800000005	41.81068600000000	0.24559700000000	0.00000000000000	0.09900700000000	0.00000000000000	0.00000000000000	0.00000000000000	0.00000000000000	0.00000000000000	0.00000000000000	0.00000000000000	24.09275400000000	0.00000000000000	0.00000000000000	0.00000000000000	0.00000000000000	
4.55165700000000	-8.18022700000000	722.02530400000001	41.86007500000000	0.24463400000000	0.00000000000000	0.09898500000000	0.00000000000000	0.00000000000000	0.00000000000000	0.00000000000000	0.00000000000000	0.00000000000000	0.00000000000000	24.26086200000000	0.00000000000000	0.00000000000000	0.00000000000000	0.00000000000000	
4.55332400000000	-8.98357500000000	724.42033900000001	41.91303500000000	0.24364500000000	0.00000000000000	0.09896500000000	0.00000000000000	0.00000000000000	0.00000000000000	0.00000000000000	0.00000000000000	0.00000000000000	0.00000000000000	24.42979900000000	0.00000000000000	0.00000000000000	0.00000000000000	0.00000000000000	
4.55498700000000	-9.78875400000000	726.85891300000003	41.96986400000000	0.24263200000000	0.00000000000000	0.09894800000000	0.00000000000000	0.00000000000000	0.00000000000000	0.00000000000000	0.00000000000000	0.00000000000000	0.00000000000000	24.59945200000000	0.00000000000000	0.00000000000000	0.00000000000000	0.00000000000000	
4.55665100000000	-10.59494500000000	729.33915600000000	42.03086900000000	0.24159600000000	0.00000000000000	0.09893200000000	0.00000000000000	0.00000000000000	0.00000000000000	0.00000000000000	0.00000000000000	0.00000000000000	0.00000000000000	24.76971000000000	0.00000000000000	0.00000000000000	0.00000000000000	0.00000000000000	
4.55831800000000	-11.40131700000000	731.85906699999998	42.09636000000000	0.24053700000000	0.00000000000000	0.09891900000000	0.00000000000000	0.00000000000000	0.00000000000000	0.00000000000000	0.00000000000000	0.00000000000000	0.00000000000000	24.94046000000000	0.00000000000000	0.00000000000000	0.00000000000000	0.00000000000000	
